<?xml version="1.0" standalone="no"?>
<!DOCTYPE svg PUBLIC "-//W3C//DTD SVG 20010904//EN"
 "http://www.w3.org/TR/2001/REC-SVG-20010904/DTD/svg10.dtd">
<svg version="1.0" xmlns="http://www.w3.org/2000/svg"
 width="512.000000pt" height="512.000000pt" viewBox="0 0 512.000000 512.000000"
 preserveAspectRatio="xMidYMid meet">

<g transform="translate(0.000000,512.000000) scale(0.100000,-0.100000)"
fill="#262626" stroke="none">
<path d="M895 4306 c-67 -29 -105 -105 -90 -183 6 -34 93 -125 768 -800 l762
-763 -762 -762 c-675 -676 -762 -767 -768 -800 -15 -80 23 -156 92 -184 49
-21 1679 -21 1726 0 19 8 378 360 859 842 898 901 851 847 833 942 -6 33 -100
130 -833 866 -481 482 -840 834 -859 842 -47 20 -1682 20 -1728 0z"/>
</g>
</svg>
